<svg id="my-svg" width="100%" xmlns="http://www.w3.org/2000/svg" xmlns:xlink="http://www.w3.org/1999/xlink" class="flowchart" style="max-width: 527.609px; background-color: white;" viewBox="0 0 527.609375 543" role="graphics-document document" aria-roledescription="flowchart-v2"><style>#my-svg{font-family:"trebuchet ms",verdana,arial,sans-serif;font-size:16px;fill:#333;}@keyframes edge-animation-frame{from{stroke-dashoffset:0;}}@keyframes dash{to{stroke-dashoffset:0;}}#my-svg .edge-animation-slow{stroke-dasharray:9,5!important;stroke-dashoffset:900;animation:dash 50s linear infinite;stroke-linecap:round;}#my-svg .edge-animation-fast{stroke-dasharray:9,5!important;stroke-dashoffset:900;animation:dash 20s linear infinite;stroke-linecap:round;}#my-svg .error-icon{fill:#552222;}#my-svg .error-text{fill:#552222;stroke:#552222;}#my-svg .edge-thickness-normal{stroke-width:1px;}#my-svg .edge-thickness-thick{stroke-width:3.5px;}#my-svg .edge-pattern-solid{stroke-dasharray:0;}#my-svg .edge-thickness-invisible{stroke-width:0;fill:none;}#my-svg .edge-pattern-dashed{stroke-dasharray:3;}#my-svg .edge-pattern-dotted{stroke-dasharray:2;}#my-svg .marker{fill:#333333;stroke:#333333;}#my-svg .marker.cross{stroke:#333333;}#my-svg svg{font-family:"trebuchet ms",verdana,arial,sans-serif;font-size:16px;}#my-svg p{margin:0;}#my-svg .label{font-family:"trebuchet ms",verdana,arial,sans-serif;color:#333;}#my-svg .cluster-label text{fill:#333;}#my-svg .cluster-label span{color:#333;}#my-svg .cluster-label span p{background-color:transparent;}#my-svg .label text,#my-svg span{fill:#333;color:#333;}#my-svg .node rect,#my-svg .node circle,#my-svg .node ellipse,#my-svg .node polygon,#my-svg .node path{fill:#ECECFF;stroke:#9370DB;stroke-width:1px;}#my-svg .rough-node .label text,#my-svg .node .label text,#my-svg .image-shape .label,#my-svg .icon-shape .label{text-anchor:middle;}#my-svg .node .katex path{fill:#000;stroke:#000;stroke-width:1px;}#my-svg .rough-node .label,#my-svg .node .label,#my-svg .image-shape .label,#my-svg .icon-shape .label{text-align:center;}#my-svg .node.clickable{cursor:pointer;}#my-svg .root .anchor path{fill:#333333!important;stroke-width:0;stroke:#333333;}#my-svg .arrowheadPath{fill:#333333;}#my-svg .edgePath .path{stroke:#333333;stroke-width:1px;}#my-svg .flowchart-link{stroke:#333333;fill:none;}#my-svg .edgeLabel{background-color:rgba(232,232,232, 0.8);text-align:center;}#my-svg .edgeLabel p{background-color:rgba(232,232,232, 0.8);}#my-svg .edgeLabel rect{opacity:0.5;background-color:rgba(232,232,232, 0.8);fill:rgba(232,232,232, 0.8);}#my-svg .labelBkg{background-color:rgba(232, 232, 232, 0.5);}#my-svg .cluster rect{fill:#ffffde;stroke:#aaaa33;stroke-width:1px;}#my-svg .cluster text{fill:#333;}#my-svg .cluster span{color:#333;}#my-svg div.mermaidTooltip{position:absolute;text-align:center;max-width:200px;padding:2px;font-family:"trebuchet ms",verdana,arial,sans-serif;font-size:12px;background:hsl(80, 100%, 96.2745098039%);border:1px solid #aaaa33;border-radius:2px;pointer-events:none;z-index:100;}#my-svg .flowchartTitleText{text-anchor:middle;font-size:18px;fill:#333;}#my-svg rect.text{fill:none;stroke-width:0;}#my-svg .icon-shape,#my-svg .image-shape{background-color:rgba(232,232,232, 0.8);text-align:center;}#my-svg .icon-shape p,#my-svg .image-shape p{background-color:rgba(232,232,232, 0.8);padding:2px;}#my-svg .icon-shape .label rect,#my-svg .image-shape .label rect{opacity:0.5;background-color:rgba(232,232,232, 0.8);fill:rgba(232,232,232, 0.8);}#my-svg .label-icon{display:inline-block;height:1em;overflow:visible;vertical-align:-0.125em;}#my-svg .node .label-icon path{fill:currentColor;stroke:revert;stroke-width:revert;}#my-svg .node .neo-node{stroke:#9370DB;}#my-svg [data-look="neo"].node rect,#my-svg [data-look="neo"].cluster rect,#my-svg [data-look="neo"].node polygon{stroke:#9370DB;filter:drop-shadow(1px 2px 2px rgba(185, 185, 185, 1));}#my-svg [data-look="neo"].swimlane.cluster rect{filter:none;}#my-svg [data-look="neo"].node path{stroke:#9370DB;stroke-width:1px;}#my-svg [data-look="neo"].node .outer-path{filter:drop-shadow(1px 2px 2px rgba(185, 185, 185, 1));}#my-svg [data-look="neo"].node .neo-line path{stroke:#9370DB;filter:none;}#my-svg [data-look="neo"].node circle{stroke:#9370DB;filter:drop-shadow(1px 2px 2px rgba(185, 185, 185, 1));}#my-svg [data-look="neo"].node circle .state-start{fill:#000000;}#my-svg [data-look="neo"].icon-shape .icon{fill:#9370DB;filter:drop-shadow(1px 2px 2px rgba(185, 185, 185, 1));}#my-svg [data-look="neo"].icon-shape .icon-neo path{stroke:#9370DB;filter:drop-shadow(1px 2px 2px rgba(185, 185, 185, 1));}#my-svg :root{--mermaid-font-family:"trebuchet ms",verdana,arial,sans-serif;}</style><g><marker id="my-svg_flowchart-v2-pointEnd" class="marker flowchart-v2" viewBox="0 0 10 10" refX="5" refY="5" markerUnits="userSpaceOnUse" markerWidth="8" markerHeight="8" orient="auto"><path d="M 0 0 L 10 5 L 0 10 z" class="arrowMarkerPath" style="stroke-width: 1; stroke-dasharray: 1, 0;"/></marker><marker id="my-svg_flowchart-v2-pointStart" class="marker flowchart-v2" viewBox="0 0 10 10" refX="4.5" refY="5" markerUnits="userSpaceOnUse" markerWidth="8" markerHeight="8" orient="auto"><path d="M 0 5 L 10 10 L 10 0 z" class="arrowMarkerPath" style="stroke-width: 1; stroke-dasharray: 1, 0;"/></marker><marker id="my-svg_flowchart-v2-pointEnd-margin" class="marker flowchart-v2" viewBox="0 0 11.5 14" refX="11.5" refY="7" markerUnits="userSpaceOnUse" markerWidth="10.5" markerHeight="14" orient="auto"><path d="M 0 0 L 11.5 7 L 0 14 z" class="arrowMarkerPath" style="stroke-width: 0; stroke-dasharray: 1, 0;"/></marker><marker id="my-svg_flowchart-v2-pointStart-margin" class="marker flowchart-v2" viewBox="0 0 11.5 14" refX="1" refY="7" markerUnits="userSpaceOnUse" markerWidth="11.5" markerHeight="14" orient="auto"><polygon points="0,7 11.5,14 11.5,0" class="arrowMarkerPath" style="stroke-width: 0; stroke-dasharray: 1, 0;"/></marker><marker id="my-svg_flowchart-v2-circleEnd" class="marker flowchart-v2" viewBox="0 0 10 10" refX="11" refY="5" markerUnits="userSpaceOnUse" markerWidth="11" markerHeight="11" orient="auto"><circle cx="5" cy="5" r="5" class="arrowMarkerPath" style="stroke-width: 1; stroke-dasharray: 1, 0;"/></marker><marker id="my-svg_flowchart-v2-circleStart" class="marker flowchart-v2" viewBox="0 0 10 10" refX="-1" refY="5" markerUnits="userSpaceOnUse" markerWidth="11" markerHeight="11" orient="auto"><circle cx="5" cy="5" r="5" class="arrowMarkerPath" style="stroke-width: 1; stroke-dasharray: 1, 0;"/></marker><marker id="my-svg_flowchart-v2-circleEnd-margin" class="marker flowchart-v2" viewBox="0 0 10 10" refY="5" refX="12.25" markerUnits="userSpaceOnUse" markerWidth="14" markerHeight="14" orient="auto"><circle cx="5" cy="5" r="5" class="arrowMarkerPath" style="stroke-width: 0; stroke-dasharray: 1, 0;"/></marker><marker id="my-svg_flowchart-v2-circleStart-margin" class="marker flowchart-v2" viewBox="0 0 10 10" refX="-2" refY="5" markerUnits="userSpaceOnUse" markerWidth="14" markerHeight="14" orient="auto"><circle cx="5" cy="5" r="5" class="arrowMarkerPath" style="stroke-width: 0; stroke-dasharray: 1, 0;"/></marker><marker id="my-svg_flowchart-v2-crossEnd" class="marker cross flowchart-v2" viewBox="0 0 11 11" refX="12" refY="5.2" markerUnits="userSpaceOnUse" markerWidth="11" markerHeight="11" orient="auto"><path d="M 1,1 l 9,9 M 10,1 l -9,9" class="arrowMarkerPath" style="stroke-width: 2; stroke-dasharray: 1, 0;"/></marker><marker id="my-svg_flowchart-v2-crossStart" class="marker cross flowchart-v2" viewBox="0 0 11 11" refX="-1" refY="5.2" markerUnits="userSpaceOnUse" markerWidth="11" markerHeight="11" orient="auto"><path d="M 1,1 l 9,9 M 10,1 l -9,9" class="arrowMarkerPath" style="stroke-width: 2; stroke-dasharray: 1, 0;"/></marker><marker id="my-svg_flowchart-v2-crossEnd-margin" class="marker cross flowchart-v2" viewBox="0 0 15 15" refX="17.7" refY="7.5" markerUnits="userSpaceOnUse" markerWidth="12" markerHeight="12" orient="auto"><path d="M 1,1 L 14,14 M 1,14 L 14,1" class="arrowMarkerPath" style="stroke-width: 2.5;"/></marker><marker id="my-svg_flowchart-v2-crossStart-margin" class="marker cross flowchart-v2" viewBox="0 0 15 15" refX="-3.5" refY="7.5" markerUnits="userSpaceOnUse" markerWidth="12" markerHeight="12" orient="auto"><path d="M 1,1 L 14,14 M 1,14 L 14,1" class="arrowMarkerPath" style="stroke-width: 2.5; stroke-dasharray: 1, 0;"/></marker><g class="root"><g class="clusters"/><g class="edgePaths"><path d="M264.277,47.5L264.194,51.583C264.111,55.667,263.944,63.833,263.861,71.417C263.777,79,263.777,86,263.777,89.5L263.777,93" id="my-svg-L_url_mk_0" class="edge-thickness-normal edge-pattern-solid edge-thickness-normal edge-pattern-solid flowchart-link" style=";" data-edge="true" data-et="edge" data-id="L_url_mk_0" data-points="W3sieCI6MjY0LjI3NzM0Mzc1LCJ5Ijo0Ny41fSx7IngiOjI2My43NzczNDM3NSwieSI6NzJ9LHsieCI6MjYzLjc3NzM0Mzc1LCJ5Ijo5N31d" data-look="classic" marker-end="url(#my-svg_flowchart-v2-pointEnd)"/><path d="M204.545,151L191.017,157.167C177.488,163.333,150.432,175.667,136.903,187.333C123.375,199,123.375,210,123.375,215.5L123.375,221" id="my-svg-L_mk_api_0" class="edge-thickness-normal edge-pattern-solid edge-thickness-normal edge-pattern-solid flowchart-link" style=";" data-edge="true" data-et="edge" data-id="L_mk_api_0" data-points="W3sieCI6MjA0LjU0NTEwNDk4MDQ2ODc1LCJ5IjoxNTF9LHsieCI6MTIzLjM3NSwieSI6MTg4fSx7IngiOjEyMy4zNzUsInkiOjIyNX1d" data-look="classic" marker-end="url(#my-svg_flowchart-v2-pointEnd)"/><path d="M323.01,151L336.538,157.167C350.066,163.333,377.123,175.667,390.651,187.333C404.18,199,404.18,210,404.18,215.5L404.18,221" id="my-svg-L_mk_st_0" class="edge-thickness-normal edge-pattern-solid edge-thickness-normal edge-pattern-solid flowchart-link" style=";" data-edge="true" data-et="edge" data-id="L_mk_st_0" data-points="W3sieCI6MzIzLjAwOTU4MjUxOTUzMTI1LCJ5IjoxNTF9LHsieCI6NDA0LjE3OTY4NzUsInkiOjE4OH0seyJ4Ijo0MDQuMTc5Njg3NSwieSI6MjI1fV0=" data-look="classic" marker-end="url(#my-svg_flowchart-v2-pointEnd)"/><path d="M123.375,303L123.375,307.167C123.375,311.333,123.375,319.667,131.909,327.723C140.443,335.78,157.512,343.561,166.046,347.451L174.58,351.341" id="my-svg-L_api_obs_0" class="edge-thickness-normal edge-pattern-solid edge-thickness-normal edge-pattern-solid flowchart-link" style=";" data-edge="true" data-et="edge" data-id="L_api_obs_0" data-points="W3sieCI6MTIzLjM3NSwieSI6MzAzfSx7IngiOjEyMy4zNzUsInkiOjMyOH0seyJ4IjoxNzguMjE5NjY1NTI3MzQzNzUsInkiOjM1M31d" data-look="classic" marker-end="url(#my-svg_flowchart-v2-pointEnd)"/><path d="M404.18,303L404.18,307.167C404.18,311.333,404.18,319.667,395.646,327.723C387.111,335.78,370.043,343.561,361.509,347.451L352.975,351.341" id="my-svg-L_st_obs_0" class="edge-thickness-normal edge-pattern-solid edge-thickness-normal edge-pattern-solid flowchart-link" style=";" data-edge="true" data-et="edge" data-id="L_st_obs_0" data-points="W3sieCI6NDA0LjE3OTY4NzUsInkiOjMwM30seyJ4Ijo0MDQuMTc5Njg3NSwieSI6MzI4fSx7IngiOjM0OS4zMzUwMjE5NzI2NTYyNSwieSI6MzUzfV0=" data-look="classic" marker-end="url(#my-svg_flowchart-v2-pointEnd)"/><path d="M263.777,431L263.777,435.167C263.777,439.333,263.777,447.667,263.777,455.333C263.777,463,263.777,470,263.777,473.5L263.777,477" id="my-svg-L_obs_P_0" class="edge-thickness-normal edge-pattern-solid edge-thickness-normal edge-pattern-solid flowchart-link" style=";" data-edge="true" data-et="edge" data-id="L_obs_P_0" data-points="W3sieCI6MjYzLjc3NzM0Mzc1LCJ5Ijo0MzF9LHsieCI6MjYzLjc3NzM0Mzc1LCJ5Ijo0NTZ9LHsieCI6MjYzLjc3NzM0Mzc1LCJ5Ijo0ODF9XQ==" data-look="classic" marker-end="url(#my-svg_flowchart-v2-pointEnd)"/></g><g class="edgeLabels"><g class="edgeLabel"><g class="label" data-id="L_url_mk_0" transform="translate(0, 0)"><foreignObject width="0" height="0"><div xmlns="http://www.w3.org/1999/xhtml" class="labelBkg" style="display: table-cell; white-space: nowrap; line-height: 1.5; max-width: 200px; text-align: center;"><span class="edgeLabel"></span></div></foreignObject></g></g><g class="edgeLabel" transform="translate(123.375, 188)"><g class="label" data-id="L_mk_api_0" transform="translate(-77.2578125, -12)"><foreignObject width="154.515625" height="24"><div xmlns="http://www.w3.org/1999/xhtml" class="labelBkg" style="display: table-cell; white-space: nowrap; line-height: 1.5; max-width: 200px; text-align: center;"><span class="edgeLabel"><p>chat/completions 포함</p></span></div></foreignObject></g></g><g class="edgeLabel" transform="translate(404.1796875, 188)"><g class="label" data-id="L_mk_st_0" transform="translate(-17.2265625, -12)"><foreignObject width="34.453125" height="24"><div xmlns="http://www.w3.org/1999/xhtml" class="labelBkg" style="display: table-cell; white-space: nowrap; line-height: 1.5; max-width: 200px; text-align: center;"><span class="edgeLabel"><p>그 외</p></span></div></foreignObject></g></g><g class="edgeLabel"><g class="label" data-id="L_api_obs_0" transform="translate(0, 0)"><foreignObject width="0" height="0"><div xmlns="http://www.w3.org/1999/xhtml" class="labelBkg" style="display: table-cell; white-space: nowrap; line-height: 1.5; max-width: 200px; text-align: center;"><span class="edgeLabel"></span></div></foreignObject></g></g><g class="edgeLabel"><g class="label" data-id="L_st_obs_0" transform="translate(0, 0)"><foreignObject width="0" height="0"><div xmlns="http://www.w3.org/1999/xhtml" class="labelBkg" style="display: table-cell; white-space: nowrap; line-height: 1.5; max-width: 200px; text-align: center;"><span class="edgeLabel"></span></div></foreignObject></g></g><g class="edgeLabel"><g class="label" data-id="L_obs_P_0" transform="translate(0, 0)"><foreignObject width="0" height="0"><div xmlns="http://www.w3.org/1999/xhtml" class="labelBkg" style="display: table-cell; white-space: nowrap; line-height: 1.5; max-width: 200px; text-align: center;"><span class="edgeLabel"></span></div></foreignObject></g></g></g><g class="nodes"><g class="node default" id="my-svg-flowchart-url-0" data-look="classic" transform="translate(263.77734375, 27.5)"><g class="basic label-container outer-path"><path d="M-26.1015625 -19.5 C-12.52958672337509 -19.5, 1.0423890532498206 -19.5, 26.1015625 -19.5 C26.1015625 -19.5, 26.1015625 -19.5, 26.1015625 -19.5 C26.56350680826516 -19.485186345153988, 27.02545111653032 -19.470372690307972, 27.3509317896239 -19.45993515863156 C27.696496797279448 -19.426598917945753, 28.042061804934995 -19.39326267725995, 28.595167152847864 -19.3399052695533 C29.04873944610146 -19.266575218685727, 29.502311739355058 -19.193245167818155, 29.82915575967676 -19.140403561325776 C30.096425997172705 -19.079400873718622, 30.363696234668648 -19.018398186111465, 31.04782688623539 -18.862249829261074 C31.47509938702298 -18.735437593826443, 31.902371887810567 -18.608625358391812, 32.246172751460605 -18.50658706670804 C32.692812832434235 -18.342219388214094, 33.139452913407865 -18.177851709720148, 33.4192690951478 -18.074876768247425 C33.712243903169835 -17.945185511524965, 34.005218711191866 -17.815494254802505, 34.56229541279238 -17.568892924097174 C34.843112108803595 -17.422391033659803, 35.1239288048148 -17.275889143222432, 35.67055476407678 -16.990714730406097 C36.01037169369105 -16.78471571068799, 36.35018862330531 -16.578716690969884, 36.7394930736057 -16.342718045390892 C37.00953290179235 -16.154349951083645, 37.27957272997899 -15.965981856776397, 37.76471784457871 -15.627565626425154 C38.121990868279575 -15.342649897458163, 38.47926389198044 -15.057734168491171, 38.742016208501866 -14.848196188198123 C39.08861676966247 -14.533422729100383, 39.43521733082307 -14.218649270002645, 39.66737223676799 -14.007812326905688 C39.995770055920545 -13.668714616668295, 40.3241678750731 -13.329616906430902, 40.53698344296865 -13.10986736009568 C40.83945265333577 -12.75456981461283, 41.14192186370288 -12.399272269129979, 41.34727640812658 -12.158051136245305 C41.54620714341318 -11.891502073924077, 41.74513787869977 -11.624953011602848, 42.094921464640635 -11.156274872382312 C42.291300841314325 -10.854583414565258, 42.487680217988014 -10.552891956748203, 42.77684637860425 -10.108655082055241 C42.97260583886662 -9.761064337564541, 43.16836529912899 -9.413473593073839, 43.390248974273504 -9.019496659696287 C43.582802377114454 -8.619655398714238, 43.775355779955405 -8.219814137732188, 43.93260864880834 -7.893275190886684 C44.0542478398792 -7.59282403720789, 44.17588703095006 -7.292372883529096, 44.401696729970325 -6.734618561215508 C44.48679071109679 -6.478329047947293, 44.57188469222326 -6.2220395346790776, 44.79558563421488 -5.548287939305138 C44.86339201942872 -5.289712805011519, 44.93119840464256 -5.031137670717902, 45.11265678754556 -4.339158212148133 C45.19968525125784 -3.8922854444578916, 45.28671371497012 -3.4454126767676496, 45.351607276581774 -3.1121979531509023 C45.39122892779588 -2.80490025051433, 45.430850579009984 -2.4976025478777575, 45.51145520250937 -1.872449005199798 C45.53164880349511 -1.5579173698655024, 45.55184240448086 -1.243385734531207, 45.59154371591342 -0.6250057626472757 C45.59154371591342 -0.2440907049698965, 45.59154371591342 0.13682435270748272, 45.59154371591342 0.625005762647271 C45.559548753395035 1.1233531297399955, 45.52755379087665 1.6217004968327196, 45.51145520250937 1.8724490051997846 C45.458319810058384 2.2845566162795317, 45.40518441760741 2.6966642273592787, 45.351607276581774 3.1121979531508885 C45.2707817774027 3.5272198089601132, 45.18995627822364 3.9422416647693375, 45.11265678754556 4.339158212148129 C44.99444957527141 4.789933543879349, 44.87624236299725 5.2407088756105695, 44.79558563421489 5.548287939305125 C44.710594958375886 5.804266313506964, 44.625604282536884 6.060244687708802, 44.401696729970325 6.734618561215495 C44.24089616562804 7.131799064008371, 44.08009560128574 7.528979566801247, 43.93260864880834 7.893275190886679 C43.76172829955216 8.248111892370895, 43.59084795029598 8.602948593855112, 43.390248974273504 9.019496659696284 C43.24561198975624 9.276314271789529, 43.10097500523898 9.533131883882772, 42.77684637860425 10.108655082055236 C42.52321399809765 10.498302528343807, 42.26958161759106 10.887949974632376, 42.09492146464064 11.156274872382301 C41.88846372350851 11.432909436812215, 41.68200598237637 11.70954400124213, 41.34727640812658 12.158051136245302 C41.107216359138306 12.440039329590684, 40.86715631015003 12.722027522936067, 40.53698344296866 13.10986736009567 C40.207934621890516 13.44963728326948, 39.87888580081238 13.78940720644329, 39.66737223676799 14.007812326905684 C39.30101790702771 14.340525635971407, 38.934663577287445 14.673238945037129, 38.74201620850189 14.848196188198111 C38.39477290912565 15.125113478918385, 38.04752960974942 15.402030769638657, 37.76471784457871 15.627565626425152 C37.36575061379378 15.905867895607665, 36.96678338300884 16.184170164790178, 36.73949307360571 16.34271804539089 C36.316773783775936 16.59897296305998, 35.89405449394617 16.85522788072907, 35.67055476407678 16.990714730406093 C35.348764564926334 17.158592471186424, 35.026974365775885 17.326470211966754, 34.56229541279239 17.56889292409717 C34.11666708855569 17.766159364142194, 33.671038764318986 17.96342580418722, 33.419269095147804 18.07487676824742 C33.09228149531355 18.195211227626665, 32.7652938954793 18.315545687005905, 32.24617275146062 18.506587066708033 C31.95724914817127 18.59233807557337, 31.66832554488192 18.67808908443871, 31.047826886235413 18.86224982926107 C30.630745362786996 18.957445965276875, 30.21366383933858 19.052642101292676, 29.829155759676766 19.140403561325773 C29.45621766820601 19.20069729977667, 29.083279576735247 19.26099103822757, 28.59516715284788 19.3399052695533 C28.2562925139047 19.372596098415766, 27.917417874961526 19.405286927278233, 27.3509317896239 19.45993515863156 C26.929764341127246 19.47344117895214, 26.508596892630592 19.48694719927272, 26.101562500000004 19.5 C26.101562500000004 19.5, 26.101562500000004 19.5, 26.1015625 19.5 C6.255524592594426 19.5, -13.590513314811147 19.5, -26.101562499999996 19.5 C-26.527651552003313 19.48633615343428, -26.95374060400663 19.472672306868564, -27.350931789623893 19.45993515863156 C-27.812892463054308 19.415370368054724, -28.274853136484726 19.370805577477885, -28.59516715284787 19.3399052695533 C-28.989424749565107 19.27616475882938, -29.383682346282345 19.212424248105464, -29.82915575967676 19.140403561325773 C-30.163405850469324 19.064113159288055, -30.49765594126189 18.98782275725034, -31.047826886235388 18.862249829261074 C-31.473278646725174 18.73597797998957, -31.898730407214956 18.609706130718067, -32.24617275146059 18.506587066708043 C-32.508686019404145 18.409979757458768, -32.7711992873477 18.313372448209492, -33.4192690951478 18.074876768247425 C-33.69038378603721 17.954862336922243, -33.96149847692662 17.834847905597062, -34.56229541279238 17.568892924097174 C-34.99626556028186 17.342490976123056, -35.430235707771345 17.11608902814894, -35.67055476407678 16.990714730406097 C-36.018705788156325 16.779663533646563, -36.366856812235866 16.56861233688703, -36.739493073605686 16.3427180453909 C-37.112838240562 16.082288618773973, -37.486183407518304 15.821859192157048, -37.76471784457871 15.627565626425156 C-38.08435099206949 15.372666697096538, -38.403984139560265 15.11776776776792, -38.742016208501866 14.848196188198125 C-38.97772633041413 14.634130492025484, -39.213436452326384 14.420064795852843, -39.667372236767974 14.007812326905697 C-39.8421110158847 13.827380191147112, -40.01684979500141 13.646948055388528, -40.536983442968655 13.109867360095677 C-40.75709983187984 12.85130612470325, -40.97721622079103 12.59274488931082, -41.347276408126575 12.158051136245307 C-41.642932074349304 11.761899478292147, -41.93858774057203 11.365747820338989, -42.094921464640635 11.156274872382316 C-42.341742140163774 10.77709203414724, -42.588562815686906 10.397909195912163, -42.77684637860425 10.108655082055249 C-43.00002198976534 9.71238418545755, -43.22319760092643 9.316113288859851, -43.390248974273504 9.019496659696289 C-43.57003085441277 8.646175738871095, -43.74981273455204 8.272854818045904, -43.93260864880834 7.893275190886686 C-44.11443836242005 7.444152282827401, -44.296268076031765 6.995029374768118, -44.401696729970325 6.73461856121551 C-44.539714937991405 6.318929708871135, -44.677733146012486 5.903240856526759, -44.79558563421488 5.5482879393051325 C-44.91446869779236 5.09493529363852, -45.03335176136984 4.641582647971908, -45.11265678754556 4.339158212148136 C-45.2048871448502 3.8655748202817413, -45.29711750215483 3.3919914284153467, -45.351607276581774 3.112197953150904 C-45.397658012436246 2.7550375396100177, -45.44370874829071 2.3978771260691314, -45.51145520250937 1.872449005199809 C-45.537392583689275 1.468453357045485, -45.56332996486918 1.064457708891161, -45.59154371591342 0.6250057626472781 C-45.59154371591342 0.2333478440179147, -45.59154371591342 -0.15831007461144875, -45.59154371591342 -0.6250057626472687 C-45.569311129338786 -0.9712962443680234, -45.547078542764154 -1.3175867260887781, -45.51145520250937 -1.8724490051997822 C-45.46282627435026 -2.249605369133782, -45.41419734619115 -2.6267617330677826, -45.351607276581774 -3.112197953150895 C-45.26861527417016 -3.538344345168638, -45.18562327175854 -3.9644907371863805, -45.11265678754556 -4.339158212148126 C-45.01494436046073 -4.711778045456358, -44.91723193337591 -5.084397878764588, -44.79558563421489 -5.548287939305123 C-44.69167894921395 -5.861238319245942, -44.587772264213015 -6.174188699186761, -44.40169672997033 -6.734618561215485 C-44.2377699031603 -7.139520992745854, -44.073843076350265 -7.544423424276222, -43.93260864880834 -7.893275190886676 C-43.80267018219669 -8.163095197043567, -43.672731715585044 -8.432915203200457, -43.390248974273504 -9.019496659696282 C-43.187190818773026 -9.380046976655281, -42.98413266327255 -9.74059729361428, -42.77684637860425 -10.108655082055243 C-42.63388560295088 -10.328281223802229, -42.49092482729752 -10.547907365549216, -42.09492146464064 -11.156274872382308 C-41.804205687496946 -11.545807529002717, -41.51348991035326 -11.935340185623126, -41.34727640812659 -12.158051136245302 C-41.11621915732124 -12.429464130571287, -40.8851619065159 -12.70087712489727, -40.53698344296866 -13.10986736009567 C-40.25794518216641 -13.397997273841266, -39.97890692136416 -13.68612718758686, -39.667372236767996 -14.007812326905677 C-39.442267363176825 -14.2122466171526, -39.217162489585654 -14.41668090739952, -38.74201620850189 -14.848196188198107 C-38.365291390595125 -15.148624205410323, -37.988566572688356 -15.449052222622539, -37.76471784457872 -15.627565626425149 C-37.430293340502054 -15.86084568346558, -37.09586883642538 -16.094125740506012, -36.739493073605715 -16.342718045390885 C-36.31330426027533 -16.60107620859523, -35.88711544694495 -16.85943437179958, -35.67055476407679 -16.99071473040609 C-35.33456479297067 -17.166000483120307, -34.998574821864544 -17.341286235834527, -34.56229541279239 -17.56889292409717 C-34.253893871839004 -17.705413137870565, -33.94549233088563 -17.841933351643956, -33.419269095147804 -18.07487676824742 C-32.9517497652441 -18.246928203353292, -32.4842304353404 -18.418979638459167, -32.24617275146062 -18.506587066708033 C-31.84964510976028 -18.624274389348628, -31.453117468059947 -18.741961711989223, -31.047826886235413 -18.862249829261067 C-30.77528074317763 -18.92445670788421, -30.502734600119844 -18.986663586507355, -29.829155759676766 -19.140403561325773 C-29.43060168864146 -19.20483869269778, -29.032047617606153 -19.269273824069785, -28.595167152847882 -19.3399052695533 C-28.098049218813912 -19.387861638777768, -27.600931284779946 -19.435818008002236, -27.350931789623903 -19.45993515863156 C-27.037448701815475 -19.46998795109976, -26.723965614007046 -19.48004074356796, -26.101562500000007 -19.5 C-26.101562500000004 -19.5, -26.1015625 -19.5, -26.1015625 -19.5" stroke="none" stroke-width="0" fill="#ECECFF" style=""/><path d="M-26.1015625 -19.5 C-10.010084543608151 -19.5, 6.081393412783697 -19.5, 26.1015625 -19.5 M-26.1015625 -19.5 C-15.503818499217854 -19.5, -4.906074498435707 -19.5, 26.1015625 -19.5 M26.1015625 -19.5 C26.1015625 -19.5, 26.1015625 -19.5, 26.1015625 -19.5 M26.1015625 -19.5 C26.1015625 -19.5, 26.1015625 -19.5, 26.1015625 -19.5 M26.1015625 -19.5 C26.472863765937646 -19.48809309109545, 26.844165031875292 -19.4761861821909, 27.3509317896239 -19.45993515863156 M26.1015625 -19.5 C26.47971317686822 -19.487873443818476, 26.85786385373644 -19.475746887636955, 27.3509317896239 -19.45993515863156 M27.3509317896239 -19.45993515863156 C27.69474869061603 -19.426767555693168, 28.03856559160816 -19.393599952754776, 28.595167152847864 -19.3399052695533 M27.3509317896239 -19.45993515863156 C27.669308032733163 -19.429221785362262, 27.98768427584243 -19.398508412092962, 28.595167152847864 -19.3399052695533 M28.595167152847864 -19.3399052695533 C29.027651730611893 -19.269984516988405, 29.460136308375926 -19.200063764423508, 29.82915575967676 -19.140403561325776 M28.595167152847864 -19.3399052695533 C28.845723445681212 -19.299397271221075, 29.09627973851456 -19.25888927288885, 29.82915575967676 -19.140403561325776 M29.82915575967676 -19.140403561325776 C30.2251133136384 -19.050028833498544, 30.62107086760004 -18.959654105671316, 31.04782688623539 -18.862249829261074 M29.82915575967676 -19.140403561325776 C30.07621650627074 -19.08401355813774, 30.323277252864717 -19.027623554949706, 31.04782688623539 -18.862249829261074 M31.04782688623539 -18.862249829261074 C31.49220898647821 -18.730359554518248, 31.936591086721034 -18.598469279775426, 32.246172751460605 -18.50658706670804 M31.04782688623539 -18.862249829261074 C31.46752315258814 -18.737686180438235, 31.88721941894089 -18.6131225316154, 32.246172751460605 -18.50658706670804 M32.246172751460605 -18.50658706670804 C32.65604022172295 -18.355752048878138, 33.06590769198529 -18.204917031048232, 33.4192690951478 -18.074876768247425 M32.246172751460605 -18.50658706670804 C32.517712551282585 -18.40665791028716, 32.789252351104565 -18.306728753866274, 33.4192690951478 -18.074876768247425 M33.4192690951478 -18.074876768247425 C33.83057772947975 -17.892802636865802, 34.2418863638117 -17.71072850548418, 34.56229541279238 -17.568892924097174 M33.4192690951478 -18.074876768247425 C33.80338628658872 -17.904839482028166, 34.18750347802965 -17.734802195808907, 34.56229541279238 -17.568892924097174 M34.56229541279238 -17.568892924097174 C34.79748894571524 -17.446192608619967, 35.032682478638094 -17.32349229314276, 35.67055476407678 -16.990714730406097 M34.56229541279238 -17.568892924097174 C34.86633796707604 -17.410274118275936, 35.17038052135971 -17.2516553124547, 35.67055476407678 -16.990714730406097 M35.67055476407678 -16.990714730406097 C36.04220527949983 -16.76541800389579, 36.41385579492288 -16.54012127738548, 36.7394930736057 -16.342718045390892 M35.67055476407678 -16.990714730406097 C35.968678959389685 -16.80999009123518, 36.266803154702586 -16.62926545206426, 36.7394930736057 -16.342718045390892 M36.7394930736057 -16.342718045390892 C37.05009292861993 -16.12605703218398, 37.36069278363417 -15.909396018977066, 37.76471784457871 -15.627565626425154 M36.7394930736057 -16.342718045390892 C37.13659598328078 -16.06571624590946, 37.53369889295585 -15.78871444642803, 37.76471784457871 -15.627565626425154 M37.76471784457871 -15.627565626425154 C38.118785025871205 -15.345206471467787, 38.4728522071637 -15.062847316510421, 38.742016208501866 -14.848196188198123 M37.76471784457871 -15.627565626425154 C38.004746654935296 -15.436149037600678, 38.24477546529187 -15.244732448776203, 38.742016208501866 -14.848196188198123 M38.742016208501866 -14.848196188198123 C39.02224410854873 -14.593700623799496, 39.30247200859561 -14.33920505940087, 39.66737223676799 -14.007812326905688 M38.742016208501866 -14.848196188198123 C39.11131420182558 -14.512809521750995, 39.48061219514929 -14.177422855303869, 39.66737223676799 -14.007812326905688 M39.66737223676799 -14.007812326905688 C39.981960875677146 -13.68297372902439, 40.296549514586296 -13.358135131143094, 40.53698344296865 -13.10986736009568 M39.66737223676799 -14.007812326905688 C39.9167152059185 -13.7503452398193, 40.16605817506901 -13.492878152732914, 40.53698344296865 -13.10986736009568 M40.53698344296865 -13.10986736009568 C40.755063938396155 -12.853697601034808, 40.97314443382366 -12.597527841973934, 41.34727640812658 -12.158051136245305 M40.53698344296865 -13.10986736009568 C40.83400568033058 -12.760968139046266, 41.13102791769251 -12.412068917996853, 41.34727640812658 -12.158051136245305 M41.34727640812658 -12.158051136245305 C41.55733039431538 -11.876597931064127, 41.767384380504176 -11.59514472588295, 42.094921464640635 -11.156274872382312 M41.34727640812658 -12.158051136245305 C41.50777484075332 -11.942997858233486, 41.66827327338005 -11.727944580221669, 42.094921464640635 -11.156274872382312 M42.094921464640635 -11.156274872382312 C42.30904957684023 -10.827316590594645, 42.52317768903983 -10.49835830880698, 42.77684637860425 -10.108655082055241 M42.094921464640635 -11.156274872382312 C42.35157981197317 -10.761978728463236, 42.6082381593057 -10.36768258454416, 42.77684637860425 -10.108655082055241 M42.77684637860425 -10.108655082055241 C42.94616199154456 -9.80801806621477, 43.11547760448486 -9.507381050374299, 43.390248974273504 -9.019496659696287 M42.77684637860425 -10.108655082055241 C42.91692706725654 -9.859927634645244, 43.05700775590882 -9.611200187235246, 43.390248974273504 -9.019496659696287 M43.390248974273504 -9.019496659696287 C43.51785393070003 -8.754522237367931, 43.64545888712655 -8.489547815039575, 43.93260864880834 -7.893275190886684 M43.390248974273504 -9.019496659696287 C43.535086460502946 -8.718738520515101, 43.67992394673239 -8.417980381333916, 43.93260864880834 -7.893275190886684 M43.93260864880834 -7.893275190886684 C44.06063452114368 -7.577048811006529, 44.18866039347903 -7.260822431126373, 44.401696729970325 -6.734618561215508 M43.93260864880834 -7.893275190886684 C44.07257132146117 -7.547564683440018, 44.21253399411399 -7.201854175993351, 44.401696729970325 -6.734618561215508 M44.401696729970325 -6.734618561215508 C44.48308784740565 -6.4894814834137975, 44.56447896484097 -6.244344405612086, 44.79558563421488 -5.548287939305138 M44.401696729970325 -6.734618561215508 C44.50097560860181 -6.4356063967186605, 44.6002544872333 -6.136594232221812, 44.79558563421488 -5.548287939305138 M44.79558563421488 -5.548287939305138 C44.91668288216343 -5.086491648998057, 45.03778013011198 -4.624695358690976, 45.11265678754556 -4.339158212148133 M44.79558563421488 -5.548287939305138 C44.89823513942017 -5.156840887380397, 45.00088464462546 -4.765393835455655, 45.11265678754556 -4.339158212148133 M45.11265678754556 -4.339158212148133 C45.17127317824027 -4.0381754345093634, 45.22988956893498 -3.7371926568705938, 45.351607276581774 -3.1121979531509023 M45.11265678754556 -4.339158212148133 C45.20805450270791 -3.849311107103704, 45.30345221787026 -3.3594640020592745, 45.351607276581774 -3.1121979531509023 M45.351607276581774 -3.1121979531509023 C45.38843128856203 -2.8265981879556827, 45.42525530054229 -2.540998422760463, 45.51145520250937 -1.872449005199798 M45.351607276581774 -3.1121979531509023 C45.40077474498618 -2.7308647774211865, 45.44994221339058 -2.3495316016914707, 45.51145520250937 -1.872449005199798 M45.51145520250937 -1.872449005199798 C45.53183268352665 -1.5550532899489324, 45.55221016454394 -1.237657574698067, 45.59154371591342 -0.6250057626472757 M45.51145520250937 -1.872449005199798 C45.53115083350698 -1.565673654384785, 45.550846464504595 -1.2588983035697718, 45.59154371591342 -0.6250057626472757 M45.59154371591342 -0.6250057626472757 C45.59154371591342 -0.17705780296416074, 45.59154371591342 0.2708901567189542, 45.59154371591342 0.625005762647271 M45.59154371591342 -0.6250057626472757 C45.59154371591342 -0.23551595084434473, 45.59154371591342 0.15397386095858623, 45.59154371591342 0.625005762647271 M45.59154371591342 0.625005762647271 C45.57207850873646 0.9281920764608207, 45.552613301559504 1.2313783902743702, 45.51145520250937 1.8724490051997846 M45.59154371591342 0.625005762647271 C45.564910086558015 1.0398460381363233, 45.53827645720261 1.4546863136253756, 45.51145520250937 1.8724490051997846 M45.51145520250937 1.8724490051997846 C45.45317962431155 2.3244228818874895, 45.39490404611374 2.776396758575194, 45.351607276581774 3.1121979531508885 M45.51145520250937 1.8724490051997846 C45.478594481611026 2.1273102674040176, 45.445733760712685 2.3821715296082506, 45.351607276581774 3.1121979531508885 M45.351607276581774 3.1121979531508885 C45.25817509138127 3.5919524772561595, 45.16474290618076 4.071707001361431, 45.11265678754556 4.339158212148129 M45.351607276581774 3.1121979531508885 C45.291738378681536 3.419612090572567, 45.2318694807813 3.727026227994246, 45.11265678754556 4.339158212148129 M45.11265678754556 4.339158212148129 C45.002688813725975 4.758513756743547, 44.89272083990639 5.177869301338966, 44.79558563421489 5.548287939305125 M45.11265678754556 4.339158212148129 C45.042255252150284 4.607629778828761, 44.971853716755014 4.876101345509394, 44.79558563421489 5.548287939305125 M44.79558563421489 5.548287939305125 C44.65862085964223 5.9608040179446755, 44.52165608506957 6.373320096584226, 44.401696729970325 6.734618561215495 M44.79558563421489 5.548287939305125 C44.71062877652824 5.804164458620261, 44.62567191884159 6.060040977935397, 44.401696729970325 6.734618561215495 M44.401696729970325 6.734618561215495 C44.24414954991343 7.123763141923541, 44.086602369856536 7.512907722631587, 43.93260864880834 7.893275190886679 M44.401696729970325 6.734618561215495 C44.24810729360559 7.113987438486137, 44.09451785724085 7.493356315756779, 43.93260864880834 7.893275190886679 M43.93260864880834 7.893275190886679 C43.77024085045014 8.230435398291823, 43.607873052091946 8.567595605696965, 43.390248974273504 9.019496659696284 M43.93260864880834 7.893275190886679 C43.794343346465354 8.180386049605442, 43.65607804412236 8.467496908324204, 43.390248974273504 9.019496659696284 M43.390248974273504 9.019496659696284 C43.15329826003561 9.44022664668728, 42.91634754579772 9.860956633678278, 42.77684637860425 10.108655082055236 M43.390248974273504 9.019496659696284 C43.260156222665145 9.250489513496493, 43.13006347105678 9.481482367296703, 42.77684637860425 10.108655082055236 M42.77684637860425 10.108655082055236 C42.55068475205884 10.456100073329115, 42.32452312551344 10.803545064602995, 42.09492146464064 11.156274872382301 M42.77684637860425 10.108655082055236 C42.576320868673946 10.416716113947112, 42.37579535874365 10.724777145838988, 42.09492146464064 11.156274872382301 M42.09492146464064 11.156274872382301 C41.90081859339234 11.416355036719684, 41.70671572214403 11.67643520105707, 41.34727640812658 12.158051136245302 M42.09492146464064 11.156274872382301 C41.8988294133401 11.419020356771647, 41.702737362039564 11.681765841160994, 41.34727640812658 12.158051136245302 M41.34727640812658 12.158051136245302 C41.08844996295797 12.462083406382305, 40.82962351778935 12.76611567651931, 40.53698344296866 13.10986736009567 M41.34727640812658 12.158051136245302 C41.072734605005515 12.480543560062456, 40.79819280188445 12.803035983879612, 40.53698344296866 13.10986736009567 M40.53698344296866 13.10986736009567 C40.191262482819994 13.466852635667871, 39.845541522671326 13.823837911240073, 39.66737223676799 14.007812326905684 M40.53698344296866 13.10986736009567 C40.3073362312669 13.34699696056446, 40.07768901956514 13.58412656103325, 39.66737223676799 14.007812326905684 M39.66737223676799 14.007812326905684 C39.32426935605184 14.319409285167321, 38.981166475335705 14.63100624342896, 38.74201620850189 14.848196188198111 M39.66737223676799 14.007812326905684 C39.43921133137235 14.215022024379255, 39.21105042597671 14.422231721852825, 38.74201620850189 14.848196188198111 M38.74201620850189 14.848196188198111 C38.44042656205819 15.088705905599411, 38.13883691561449 15.329215623000714, 37.76471784457871 15.627565626425152 M38.74201620850189 14.848196188198111 C38.403036244853496 15.118523688572026, 38.064056281205104 15.388851188945942, 37.76471784457871 15.627565626425152 M37.76471784457871 15.627565626425152 C37.51020311665928 15.805104082856754, 37.25568838873985 15.982642539288355, 36.73949307360571 16.34271804539089 M37.76471784457871 15.627565626425152 C37.54520266737693 15.780689911382252, 37.32568749017514 15.933814196339354, 36.73949307360571 16.34271804539089 M36.73949307360571 16.34271804539089 C36.32605008086456 16.59334961725128, 35.91260708812342 16.843981189111677, 35.67055476407678 16.990714730406093 M36.73949307360571 16.34271804539089 C36.43941991060177 16.524624160229518, 36.13934674759783 16.70653027506815, 35.67055476407678 16.990714730406093 M35.67055476407678 16.990714730406093 C35.31091456714265 17.17833879078609, 34.95127437020852 17.365962851166085, 34.56229541279239 17.56889292409717 M35.67055476407678 16.990714730406093 C35.294829224492396 17.186730503743576, 34.91910368490801 17.382746277081054, 34.56229541279239 17.56889292409717 M34.56229541279239 17.56889292409717 C34.14262766972378 17.75466738495236, 33.72295992665517 17.94044184580755, 33.419269095147804 18.07487676824742 M34.56229541279239 17.56889292409717 C34.1230209257946 17.763346708876412, 33.68374643879682 17.957800493655654, 33.419269095147804 18.07487676824742 M33.419269095147804 18.07487676824742 C33.09203960214613 18.19530024654831, 32.76481010914446 18.3157237248492, 32.24617275146062 18.506587066708033 M33.419269095147804 18.07487676824742 C33.07133646391272 18.202919192795918, 32.72340383267763 18.330961617344414, 32.24617275146062 18.506587066708033 M32.24617275146062 18.506587066708033 C31.855575323260535 18.62251433311008, 31.46497789506045 18.738441599512125, 31.047826886235413 18.86224982926107 M32.24617275146062 18.506587066708033 C31.95180139945864 18.593954938795463, 31.657430047456657 18.681322810882893, 31.047826886235413 18.86224982926107 M31.047826886235413 18.86224982926107 C30.763066700742954 18.927244483365854, 30.478306515250495 18.992239137470634, 29.829155759676766 19.140403561325773 M31.047826886235413 18.86224982926107 C30.76694370320537 18.92635958285361, 30.48606052017533 18.990469336446154, 29.829155759676766 19.140403561325773 M29.829155759676766 19.140403561325773 C29.51165748544101 19.19173422006832, 29.19415921120525 19.243064878810866, 28.59516715284788 19.3399052695533 M29.829155759676766 19.140403561325773 C29.54728625641177 19.185974036683014, 29.265416753146773 19.23154451204025, 28.59516715284788 19.3399052695533 M28.59516715284788 19.3399052695533 C28.181033822377064 19.37985621387562, 27.766900491906245 19.419807158197937, 27.3509317896239 19.45993515863156 M28.59516715284788 19.3399052695533 C28.332552411367356 19.36523939782349, 28.06993766988683 19.39057352609368, 27.3509317896239 19.45993515863156 M27.3509317896239 19.45993515863156 C27.006323365183565 19.470986080063753, 26.66171494074323 19.482037001495947, 26.101562500000004 19.5 M27.3509317896239 19.45993515863156 C27.007266245853533 19.470955843715874, 26.663600702083162 19.48197652880019, 26.101562500000004 19.5 M26.101562500000004 19.5 C26.101562500000004 19.5, 26.1015625 19.5, 26.1015625 19.5 M26.101562500000004 19.5 C26.101562500000004 19.5, 26.101562500000004 19.5, 26.1015625 19.5 M26.1015625 19.5 C7.563437497363733 19.5, -10.974687505272534 19.5, -26.101562499999996 19.5 M26.1015625 19.5 C7.631274429334386 19.5, -10.839013641331228 19.5, -26.101562499999996 19.5 M-26.101562499999996 19.5 C-26.441868308457703 19.489087055087836, -26.78217411691541 19.47817411017567, -27.350931789623893 19.45993515863156 M-26.101562499999996 19.5 C-26.52643216763785 19.486375256717494, -26.951301835275707 19.47275051343499, -27.350931789623893 19.45993515863156 M-27.350931789623893 19.45993515863156 C-27.631826466256918 19.432837587002044, -27.912721142889943 19.405740015372533, -28.59516715284787 19.3399052695533 M-27.350931789623893 19.45993515863156 C-27.680580154474466 19.428134377334587, -28.010228519325043 19.396333596037614, -28.59516715284787 19.3399052695533 M-28.59516715284787 19.3399052695533 C-28.936962109549924 19.284646511613186, -29.278757066251977 19.229387753673077, -29.82915575967676 19.140403561325773 M-28.59516715284787 19.3399052695533 C-28.861110738864088 19.29690957298951, -29.127054324880305 19.253913876425717, -29.82915575967676 19.140403561325773 M-29.82915575967676 19.140403561325773 C-30.25272001470782 19.04372778413001, -30.67628426973888 18.947052006934243, -31.047826886235388 18.862249829261074 M-29.82915575967676 19.140403561325773 C-30.11167393590694 19.075920631204628, -30.394192112137116 19.011437701083484, -31.047826886235388 18.862249829261074 M-31.047826886235388 18.862249829261074 C-31.388456910814376 18.761152625969515, -31.72908693539337 18.660055422677956, -32.24617275146059 18.506587066708043 M-31.047826886235388 18.862249829261074 C-31.36114921079218 18.769257407995063, -31.674471535348975 18.67626498672905, -32.24617275146059 18.506587066708043 M-32.24617275146059 18.506587066708043 C-32.49998234994173 18.413182788276774, -32.753791948422865 18.31977850984551, -33.4192690951478 18.074876768247425 M-32.24617275146059 18.506587066708043 C-32.70967218033431 18.336014992340765, -33.17317160920802 18.165442917973483, -33.4192690951478 18.074876768247425 M-33.4192690951478 18.074876768247425 C-33.82780120629966 17.89403172131499, -34.23633331745153 17.713186674382563, -34.56229541279238 17.568892924097174 M-33.4192690951478 18.074876768247425 C-33.74092842344987 17.932487725293054, -34.06258775175195 17.790098682338684, -34.56229541279238 17.568892924097174 M-34.56229541279238 17.568892924097174 C-34.95100238198931 17.36610474724583, -35.339709351186244 17.16331657039449, -35.67055476407678 16.990714730406097 M-34.56229541279238 17.568892924097174 C-34.81618496134391 17.436438909241858, -35.070074509895434 17.303984894386545, -35.67055476407678 16.990714730406097 M-35.67055476407678 16.990714730406097 C-35.992945569214555 16.795279529752914, -36.31533637435233 16.59984432909973, -36.739493073605686 16.3427180453909 M-35.67055476407678 16.990714730406097 C-36.04096861870133 16.76616767493927, -36.41138247332587 16.54162061947244, -36.739493073605686 16.3427180453909 M-36.739493073605686 16.3427180453909 C-37.11400255943131 16.08147644033329, -37.48851204525694 15.820234835275677, -37.76471784457871 15.627565626425156 M-36.739493073605686 16.3427180453909 C-37.0821829597859 16.103672415597664, -37.42487284596611 15.864626785804427, -37.76471784457871 15.627565626425156 M-37.76471784457871 15.627565626425156 C-37.966353618175894 15.466766462734684, -38.16798939177308 15.305967299044214, -38.742016208501866 14.848196188198125 M-37.76471784457871 15.627565626425156 C-38.11450128029617 15.348622644568625, -38.46428471601362 15.069679662712094, -38.742016208501866 14.848196188198125 M-38.742016208501866 14.848196188198125 C-38.96114295820566 14.649191071893224, -39.18026970790947 14.450185955588324, -39.667372236767974 14.007812326905697 M-38.742016208501866 14.848196188198125 C-38.955263839139064 14.654530332276543, -39.16851146977626 14.460864476354962, -39.667372236767974 14.007812326905697 M-39.667372236767974 14.007812326905697 C-39.86484311611231 13.803907431321962, -40.06231399545665 13.600002535738229, -40.536983442968655 13.109867360095677 M-39.667372236767974 14.007812326905697 C-39.9751014988558 13.690056598757732, -40.28283076094363 13.372300870609767, -40.536983442968655 13.109867360095677 M-40.536983442968655 13.109867360095677 C-40.715464256488254 12.900213640689566, -40.893945070007845 12.690559921283453, -41.347276408126575 12.158051136245307 M-40.536983442968655 13.109867360095677 C-40.78409200776931 12.81959957900516, -41.031200572569965 12.529331797914642, -41.347276408126575 12.158051136245307 M-41.347276408126575 12.158051136245307 C-41.607827618531445 11.808936251006363, -41.868378828936315 11.45982136576742, -42.094921464640635 11.156274872382316 M-41.347276408126575 12.158051136245307 C-41.615083354013336 11.799214226471733, -41.88289029990009 11.440377316698157, -42.094921464640635 11.156274872382316 M-42.094921464640635 11.156274872382316 C-42.2797394333735 10.872344841835096, -42.464557402106365 10.588414811287878, -42.77684637860425 10.108655082055249 M-42.094921464640635 11.156274872382316 C-42.35279290912233 10.760115085479939, -42.610664353604015 10.363955298577562, -42.77684637860425 10.108655082055249 M-42.77684637860425 10.108655082055249 C-43.00806102147007 9.698110070625573, -43.23927566433589 9.287565059195897, -43.390248974273504 9.019496659696289 M-42.77684637860425 10.108655082055249 C-42.963164109194096 9.777829084676918, -43.14948183978394 9.447003087298587, -43.390248974273504 9.019496659696289 M-43.390248974273504 9.019496659696289 C-43.56174944058279 8.663372271882928, -43.73324990689207 8.307247884069568, -43.93260864880834 7.893275190886686 M-43.390248974273504 9.019496659696289 C-43.53023038674803 8.728822261570517, -43.67021179922256 8.438147863444746, -43.93260864880834 7.893275190886686 M-43.93260864880834 7.893275190886686 C-44.05010017411074 7.603068851845652, -44.16759169941314 7.312862512804619, -44.401696729970325 6.73461856121551 M-43.93260864880834 7.893275190886686 C-44.05424346099568 7.592834853134856, -44.17587827318301 7.292394515383025, -44.401696729970325 6.73461856121551 M-44.401696729970325 6.73461856121551 C-44.552812960668035 6.279480551455638, -44.70392919136574 5.824342541695765, -44.79558563421488 5.5482879393051325 M-44.401696729970325 6.73461856121551 C-44.53606731520054 6.329915767547443, -44.67043790043076 5.9252129738793755, -44.79558563421488 5.5482879393051325 M-44.79558563421488 5.5482879393051325 C-44.877009727466856 5.237782582310102, -44.95843382071884 4.927277225315071, -45.11265678754556 4.339158212148136 M-44.79558563421488 5.5482879393051325 C-44.86128766193368 5.29773763217441, -44.92698968965248 5.047187325043688, -45.11265678754556 4.339158212148136 M-45.11265678754556 4.339158212148136 C-45.187619292146614 3.954241594352683, -45.26258179674767 3.569324976557231, -45.351607276581774 3.112197953150904 M-45.11265678754556 4.339158212148136 C-45.198577899636966 3.897971460992244, -45.284499011728364 3.456784709836352, -45.351607276581774 3.112197953150904 M-45.351607276581774 3.112197953150904 C-45.40719418291284 2.681076884523402, -45.462781089243904 2.2499558158959, -45.51145520250937 1.872449005199809 M-45.351607276581774 3.112197953150904 C-45.3989042905869 2.7453716523790193, -45.446201304592016 2.3785453516071344, -45.51145520250937 1.872449005199809 M-45.51145520250937 1.872449005199809 C-45.541962706396276 1.3972700069472705, -45.572470210283186 0.9220910086947319, -45.59154371591342 0.6250057626472781 M-45.51145520250937 1.872449005199809 C-45.53347544172882 1.529466004939703, -45.55549568094827 1.186483004679597, -45.59154371591342 0.6250057626472781 M-45.59154371591342 0.6250057626472781 C-45.59154371591342 0.299115397168667, -45.59154371591342 -0.02677496830994419, -45.59154371591342 -0.6250057626472687 M-45.59154371591342 0.6250057626472781 C-45.59154371591342 0.2064973400614996, -45.59154371591342 -0.21201108252427892, -45.59154371591342 -0.6250057626472687 M-45.59154371591342 -0.6250057626472687 C-45.56142245310776 -1.0941687442911145, -45.5313011903021 -1.5633317259349604, -45.51145520250937 -1.8724490051997822 M-45.59154371591342 -0.6250057626472687 C-45.56334767058411 -1.064181928089429, -45.5351516252548 -1.503358093531589, -45.51145520250937 -1.8724490051997822 M-45.51145520250937 -1.8724490051997822 C-45.45353420308829 -2.3216728389146413, -45.3956132036672 -2.7708966726295, -45.351607276581774 -3.112197953150895 M-45.51145520250937 -1.8724490051997822 C-45.44919015347514 -2.3553644298845295, -45.38692510444093 -2.8382798545692767, -45.351607276581774 -3.112197953150895 M-45.351607276581774 -3.112197953150895 C-45.26160089748399 -3.5743616869630883, -45.17159451838619 -4.036525420775281, -45.11265678754556 -4.339158212148126 M-45.351607276581774 -3.112197953150895 C-45.291495648446414 -3.4208584590288704, -45.231384020311054 -3.729518964906846, -45.11265678754556 -4.339158212148126 M-45.11265678754556 -4.339158212148126 C-45.04251090746682 -4.6066548543051145, -44.97236502738807 -4.874151496462102, -44.79558563421489 -5.548287939305123 M-45.11265678754556 -4.339158212148126 C-45.02832864683391 -4.660737960729018, -44.944000506122265 -4.98231770930991, -44.79558563421489 -5.548287939305123 M-44.79558563421489 -5.548287939305123 C-44.70194779815583 -5.830310182351903, -44.60830996209676 -6.112332425398684, -44.40169672997033 -6.734618561215485 M-44.79558563421489 -5.548287939305123 C-44.660582090312026 -5.954897103646924, -44.525578546409164 -6.361506267988725, -44.40169672997033 -6.734618561215485 M-44.40169672997033 -6.734618561215485 C-44.24256172140648 -7.127685109034275, -44.08342671284264 -7.520751656853066, -43.93260864880834 -7.893275190886676 M-44.40169672997033 -6.734618561215485 C-44.2905921344581 -7.0090490601919235, -44.179487538945864 -7.283479559168362, -43.93260864880834 -7.893275190886676 M-43.93260864880834 -7.893275190886676 C-43.767588222574744 -8.235943636832227, -43.60256779634115 -8.578612082777777, -43.390248974273504 -9.019496659696282 M-43.93260864880834 -7.893275190886676 C-43.815685428680254 -8.136068759238789, -43.69876220855217 -8.378862327590904, -43.390248974273504 -9.019496659696282 M-43.390248974273504 -9.019496659696282 C-43.2300755101456 -9.30390086457737, -43.06990204601771 -9.588305069458457, -42.77684637860425 -10.108655082055243 M-43.390248974273504 -9.019496659696282 C-43.22100089954776 -9.320013754597806, -43.051752824822024 -9.62053084949933, -42.77684637860425 -10.108655082055243 M-42.77684637860425 -10.108655082055243 C-42.607593012009346 -10.36867370403767, -42.438339645414445 -10.628692326020099, -42.09492146464064 -11.156274872382308 M-42.77684637860425 -10.108655082055243 C-42.63800453933232 -10.321953431431051, -42.4991627000604 -10.53525178080686, -42.09492146464064 -11.156274872382308 M-42.09492146464064 -11.156274872382308 C-41.912557306342414 -11.40062623078534, -41.73019314804418 -11.644977589188372, -41.34727640812659 -12.158051136245302 M-42.09492146464064 -11.156274872382308 C-41.80392471217879 -11.546184010331672, -41.51292795971694 -11.936093148281035, -41.34727640812659 -12.158051136245302 M-41.34727640812659 -12.158051136245302 C-41.02675553027732 -12.534553197521667, -40.706234652428044 -12.911055258798035, -40.53698344296866 -13.10986736009567 M-41.34727640812659 -12.158051136245302 C-41.04818465578643 -12.509381327346883, -40.74909290344627 -12.860711518448467, -40.53698344296866 -13.10986736009567 M-40.53698344296866 -13.10986736009567 C-40.2168002423159 -13.440482802299302, -39.896617041663134 -13.771098244502934, -39.667372236767996 -14.007812326905677 M-40.53698344296866 -13.10986736009567 C-40.29951991206397 -13.355067951873231, -40.06205638115928 -13.60026854365079, -39.667372236767996 -14.007812326905677 M-39.667372236767996 -14.007812326905677 C-39.360388458437164 -14.286606872040057, -39.053404680106325 -14.565401417174435, -38.74201620850189 -14.848196188198107 M-39.667372236767996 -14.007812326905677 C-39.343697895404446 -14.30176479977827, -39.0200235540409 -14.595717272650866, -38.74201620850189 -14.848196188198107 M-38.74201620850189 -14.848196188198107 C-38.52306516627958 -15.022803817838469, -38.304114124057264 -15.19741144747883, -37.76471784457872 -15.627565626425149 M-38.74201620850189 -14.848196188198107 C-38.490421659067955 -15.048836146159525, -38.23882710963403 -15.249476104120943, -37.76471784457872 -15.627565626425149 M-37.76471784457872 -15.627565626425149 C-37.534268814187406 -15.788316894048387, -37.3038197837961 -15.949068161671624, -36.739493073605715 -16.342718045390885 M-37.76471784457872 -15.627565626425149 C-37.51185147900562 -15.8039542566404, -37.25898511343253 -15.980342886855652, -36.739493073605715 -16.342718045390885 M-36.739493073605715 -16.342718045390885 C-36.3263640199317 -16.593159305543875, -35.91323496625769 -16.84360056569686, -35.67055476407679 -16.99071473040609 M-36.739493073605715 -16.342718045390885 C-36.443926807776606 -16.521892052676666, -36.148360541947504 -16.701066059962443, -35.67055476407679 -16.99071473040609 M-35.67055476407679 -16.99071473040609 C-35.33275881833636 -17.166942658930243, -34.994962872595934 -17.343170587454395, -34.56229541279239 -17.56889292409717 M-35.67055476407679 -16.99071473040609 C-35.31587637426624 -17.175750219187904, -34.961197984455694 -17.360785707969715, -34.56229541279239 -17.56889292409717 M-34.56229541279239 -17.56889292409717 C-34.27745294861302 -17.69498423343789, -33.99261048443365 -17.821075542778612, -33.419269095147804 -18.07487676824742 M-34.56229541279239 -17.56889292409717 C-34.331478025265724 -17.671068934600697, -34.10066063773906 -17.77324494510422, -33.419269095147804 -18.07487676824742 M-33.419269095147804 -18.07487676824742 C-32.970306715585615 -18.24009907408905, -32.521344336023425 -18.405321379930676, -32.24617275146062 -18.506587066708033 M-33.419269095147804 -18.07487676824742 C-33.0344277964181 -18.216501923613922, -32.64958649768839 -18.35812707898042, -32.24617275146062 -18.506587066708033 M-32.24617275146062 -18.506587066708033 C-31.907759009994567 -18.60702648880518, -31.56934526852852 -18.707465910902325, -31.047826886235413 -18.862249829261067 M-32.24617275146062 -18.506587066708033 C-31.91544192276809 -18.60474624062243, -31.584711094075555 -18.70290541453683, -31.047826886235413 -18.862249829261067 M-31.047826886235413 -18.862249829261067 C-30.75749410856757 -18.92851639116532, -30.467161330899728 -18.99478295306957, -29.829155759676766 -19.140403561325773 M-31.047826886235413 -18.862249829261067 C-30.79457495734758 -18.920052929406435, -30.54132302845975 -18.9778560295518, -29.829155759676766 -19.140403561325773 M-29.829155759676766 -19.140403561325773 C-29.47111334493356 -19.198289082281057, -29.113070930190354 -19.256174603236346, -28.595167152847882 -19.3399052695533 M-29.829155759676766 -19.140403561325773 C-29.463511395768865 -19.19951810646801, -29.097867031860964 -19.25863265161025, -28.595167152847882 -19.3399052695533 M-28.595167152847882 -19.3399052695533 C-28.13724130249557 -19.384080825600375, -27.67931545214326 -19.428256381647454, -27.350931789623903 -19.45993515863156 M-28.595167152847882 -19.3399052695533 C-28.118774300425635 -19.385862315080242, -27.642381448003388 -19.431819360607186, -27.350931789623903 -19.45993515863156 M-27.350931789623903 -19.45993515863156 C-27.07717555171048 -19.46871398834725, -26.803419313797058 -19.47749281806294, -26.101562500000007 -19.5 M-27.350931789623903 -19.45993515863156 C-26.9569230971134 -19.472570250508976, -26.562914404602896 -19.48520534238639, -26.101562500000007 -19.5 M-26.101562500000007 -19.5 C-26.101562500000007 -19.5, -26.101562500000004 -19.5, -26.1015625 -19.5 M-26.101562500000007 -19.5 C-26.101562500000004 -19.5, -26.101562500000004 -19.5, -26.1015625 -19.5" stroke="#9370DB" stroke-width="1.3" fill="none" stroke-dasharray="0 0" style=""/></g><g class="label" style="" transform="translate(-33.2265625, -12)"><rect/><foreignObject width="66.453125" height="24"><div xmlns="http://www.w3.org/1999/xhtml" style="display: table-cell; white-space: nowrap; line-height: 1.5; max-width: 200px; text-align: center;"><span class="nodeLabel"><p>대상 URL</p></span></div></foreignObject></g></g><g class="node default" id="my-svg-flowchart-mk-1" data-look="classic" transform="translate(263.77734375, 124)"><rect class="basic label-container" style="" x="-95.3671875" y="-27" width="190.734375" height="54"/><g class="label" style="" transform="translate(-65.3671875, -12)"><rect/><foreignObject width="130.734375" height="24"><div xmlns="http://www.w3.org/1999/xhtml" style="display: table-cell; white-space: nowrap; line-height: 1.5; max-width: 200px; text-align: center;"><span class="nodeLabel"><p>make_adapter(url)</p></span></div></foreignObject></g></g><g class="node default" id="my-svg-flowchart-api-3" data-look="classic" transform="translate(123.375, 264)"><rect class="basic label-container" style="" x="-115.375" y="-39" width="230.75" height="78"/><g class="label" style="" transform="translate(-85.375, -24)"><rect/><foreignObject width="170.75" height="48"><div xmlns="http://www.w3.org/1999/xhtml" style="display: table-cell; white-space: nowrap; line-height: 1.5; max-width: 200px; text-align: center;"><span class="nodeLabel"><p>APIAdapter<br />OpenAI 호환 · T0 텍스트</p></span></div></foreignObject></g></g><g class="node default" id="my-svg-flowchart-st-5" data-look="classic" transform="translate(404.1796875, 264)"><rect class="basic label-container" style="" x="-115.4296875" y="-39" width="230.859375" height="78"/><g class="label" style="" transform="translate(-85.4296875, -24)"><rect/><foreignObject width="170.859375" height="48"><div xmlns="http://www.w3.org/1999/xhtml" style="display: table-cell; white-space: nowrap; line-height: 1.5; max-width: 200px; text-align: center;"><span class="nodeLabel"><p>StreamlitAdapter<br />Playwright · T1 도구단계</p></span></div></foreignObject></g></g><g class="node default" id="my-svg-flowchart-obs-7" data-look="classic" transform="translate(263.77734375, 392)"><rect class="basic label-container" style="" x="-114.03125" y="-39" width="228.0625" height="78"/><g class="label" style="" transform="translate(-84.03125, -24)"><rect/><foreignObject width="168.0625" height="48"><div xmlns="http://www.w3.org/1999/xhtml" style="display: table-cell; white-space: nowrap; line-height: 1.5; max-width: 200px; text-align: center;"><span class="nodeLabel"><p>RawObservation<br />visible_text · steps · tier</p></span></div></foreignObject></g></g><g class="node default" id="my-svg-flowchart-P-11" data-look="classic" transform="translate(263.77734375, 508)"><rect class="basic label-container" style="" x="-90.6875" y="-27" width="181.375" height="54"/><g class="label" style="" transform="translate(-60.6875, -12)"><rect/><foreignObject width="121.375" height="24"><div xmlns="http://www.w3.org/1999/xhtml" style="display: table-cell; white-space: nowrap; line-height: 1.5; max-width: 200px; text-align: center;"><span class="nodeLabel"><p>P1 / P4 공용 수집</p></span></div></foreignObject></g></g></g></g></g><defs><filter id="my-svg-drop-shadow" height="130%" width="130%"><feDropShadow dx="4" dy="4" stdDeviation="0" flood-opacity="0.06" flood-color="#000000"/></filter></defs><defs><filter id="my-svg-drop-shadow-small" height="150%" width="150%"><feDropShadow dx="2" dy="2" stdDeviation="0" flood-opacity="0.06" flood-color="#000000"/></filter></defs></svg>